<?xml version="1.0" encoding="UTF-8"?>
<svg id="Calque_2" data-name="Calque 2" xmlns="http://www.w3.org/2000/svg" viewBox="0 0 86.73 96.99">
  <defs>
    <style>
      .cls-1 {
        fill: #239e1d;
      }
    </style>
  </defs>
  <path class="cls-1" d="M15.58,33.56h11.41s-4.46-22.82,18.61-22.53c0,0,20.73-2.34,18.83,22.53h11.12s.88-21.21-10.24-27.79C54.19-.82,46.44,.04,46.44,.04c0,0-15.21,.17-23.26,8.07s-7.61,25.45-7.61,25.45Z"/>
  <path class="cls-1" d="M86.67,48.51c-.15-7.28-8.48-10.86-8.48-10.86H13.09c-6.29,1.32-8.48,7.61-8.48,7.61v42.42c1.02,6.29,9.65,9.31,9.65,9.31h61.3c7.77,0,11.1-8.29,11.1-8.29,0,0,.15-32.91,0-40.19Zm-63.19,26.29c-4.28,0-7.75-3.47-7.75-7.75s3.47-7.75,7.75-7.75,7.75,3.47,7.75,7.75-3.47,7.75-7.75,7.75Zm22.12,0c-4.28,0-7.75-3.47-7.75-7.75s3.47-7.75,7.75-7.75,7.75,3.47,7.75,7.75-3.47,7.75-7.75,7.75Zm22.2,0c-4.28,0-7.75-3.47-7.75-7.75s3.47-7.75,7.75-7.75,7.75,3.47,7.75,7.75-3.47,7.75-7.75,7.75Z"/>
</svg>